<svg xmlns="http://www.w3.org/2000/svg" width="28.667" height="24.174" viewBox="0 0 28.667 24.174">
  <g id="Icon_feather-users" data-name="Icon feather-users" transform="translate(0 -2.826)">
    <path id="Path_4" data-name="Path 4" d="M20.167,29.5V27.167A4.667,4.667,0,0,0,15.5,22.5H6.167A4.667,4.667,0,0,0,1.5,27.167V29.5" transform="translate(0 -4)" fill="none" stroke="#747577" stroke-linecap="round" stroke-linejoin="round" stroke-width="3"/>
    <path id="Path_5" data-name="Path 5" d="M16.833,9.167A4.667,4.667,0,1,1,12.167,4.5a4.667,4.667,0,0,1,4.667,4.667Z" transform="translate(-1.333)" fill="rgba(255,255,255,0)" stroke="#747577" stroke-linecap="round" stroke-linejoin="round" stroke-width="3"/>
    <path id="Path_6" data-name="Path 6" d="M33.5,29.543V27.21A4.667,4.667,0,0,0,30,22.7" transform="translate(-6.333 -4.043)" fill="none" stroke="#747577" stroke-linecap="round" stroke-linejoin="round" stroke-width="3"/>
    <path id="Path_7" data-name="Path 7" d="M24,4.7a4.667,4.667,0,0,1,0,9.042" transform="translate(-5 -0.043)" fill="none" stroke="#747577" stroke-linecap="round" stroke-linejoin="round" stroke-width="3"/>
  </g>
</svg>
